<svg width="48" height="49" viewBox="0 0 48 49" fill="none" xmlns="http://www.w3.org/2000/svg">
<circle cx="24" cy="24.3398" r="24" fill="#FFD361" fill-opacity="0.1"/>
<g clip-path="url(#clip0_2_719)">
<path fill-rule="evenodd" clip-rule="evenodd" d="M14.2496 33.3384H34.4996V31.8384H14.9996V12.3384H13.4996V32.5884L14.2496 33.3384ZM16.4996 29.5884V17.5884L17.2496 16.8384H20.2496L20.9996 17.5884V29.5884L20.2496 30.3384H17.2496L16.4996 29.5884ZM19.4996 28.8384V18.3384H17.9996V28.8384H19.4996ZM28.4996 14.5884V29.5884L29.2496 30.3384H32.2496L32.9996 29.5884V14.5884L32.2496 13.8384H29.2496L28.4996 14.5884ZM31.4996 15.3384V28.8384H29.9996V15.3384H31.4996ZM22.4996 29.5884V20.5884L23.2496 19.8384H26.2496L26.9996 20.5884V29.5884L26.2496 30.3384H23.2496L22.4996 29.5884ZM25.4996 28.8384V21.3384H23.9996V28.8384H25.4996Z" fill="#FABB18"/>
</g>
<defs>
<clipPath id="clip0_2_719">
<rect width="24" height="24" fill="white" transform="translate(12 12.3398)"/>
</clipPath>
</defs>
</svg>
