<svg width="48" height="49" viewBox="0 0 48 49" fill="none" xmlns="http://www.w3.org/2000/svg">
<circle cx="24" cy="24.3398" r="24" fill="#D8E3FA" fill-opacity="0.6"/>
<path d="M27 13.3398H21V15.3398H27V13.3398ZM23 26.3398H25V20.3398H23V26.3398ZM31.03 19.7298L32.45 18.3098C32.02 17.7998 31.55 17.3198 31.04 16.8998L29.62 18.3198C28.07 17.0798 26.12 16.3398 24 16.3398C19.03 16.3398 15 20.3698 15 25.3398C15 30.3098 19.02 34.3398 24 34.3398C28.98 34.3398 33 30.3098 33 25.3398C33 23.2198 32.26 21.2698 31.03 19.7298ZM24 32.3398C20.13 32.3398 17 29.2098 17 25.3398C17 21.4698 20.13 18.3398 24 18.3398C27.87 18.3398 31 21.4698 31 25.3398C31 29.2098 27.87 32.3398 24 32.3398Z" fill="#3672E9"/>
</svg>
