<svg width="31" height="30" viewBox="0 0 31 30" fill="none" xmlns="http://www.w3.org/2000/svg">
<g clip-path="url(#clip0_2_267)">
<path d="M23.6914 29.9838H7.27118C3.64231 29.9838 0.703094 27.0528 0.703094 23.4341V7.05981C0.703094 3.4411 3.64231 0.510101 7.27118 0.510101H23.6914C27.3202 0.510101 30.2595 3.4411 30.2595 7.05981V23.4341C30.2595 27.0528 27.3202 29.9838 23.6914 29.9838Z" fill="white"/>
<path d="M10.9379 19.8559H19.2506C19.4261 19.856 19.5951 19.9225 19.7233 20.0419C19.8516 20.1614 19.9296 20.325 19.9415 20.4996C19.9535 20.6742 19.8986 20.8469 19.7878 20.9826C19.677 21.1184 19.5187 21.2072 19.3448 21.231L19.2506 21.2375H10.9379C10.7624 21.2374 10.5934 21.171 10.4652 21.0515C10.337 20.932 10.259 20.7684 10.247 20.5938C10.235 20.4192 10.29 20.2465 10.4008 20.1108C10.5115 19.975 10.6698 19.8862 10.8437 19.8624L10.9379 19.8559H19.2506H10.9379ZM15.0001 8.80973L15.0943 8.80328C15.2617 8.80329 15.4234 8.86374 15.5496 8.97346C15.6757 9.08318 15.7578 9.23475 15.7805 9.40013L15.787 9.49407V16.5751L17.8698 14.4991C17.9873 14.382 18.143 14.3109 18.3086 14.2987C18.4743 14.2865 18.6388 14.3341 18.7722 14.4328L18.8498 14.4991C18.9672 14.6162 19.0385 14.7715 19.0507 14.9367C19.0629 15.1019 19.0152 15.2659 18.9163 15.3989L18.8498 15.4763L15.5838 18.7322C15.4665 18.8492 15.311 18.9204 15.1456 18.9327C14.9801 18.945 14.8158 18.8978 14.6823 18.7995L14.6047 18.7322L11.3388 15.4763C11.2148 15.3531 11.1423 15.1876 11.1357 15.0131C11.1291 14.8387 11.189 14.6683 11.3033 14.5361C11.4176 14.4039 11.5779 14.3197 11.7519 14.3006C11.9259 14.2814 12.1007 14.3286 12.2412 14.4328L12.3187 14.4991L14.4015 16.577V9.49407C14.4016 9.32714 14.4622 9.16586 14.5722 9.04006C14.6822 8.91425 14.8342 8.83243 15.0001 8.80973L15.0943 8.80328L15.0001 8.80973Z" fill="black"/>
</g>
<defs>
<clipPath id="clip0_2_267">
<rect width="29.5564" height="29.4737" fill="white" transform="translate(0.704041 0.509857)"/>
</clipPath>
</defs>
</svg>
