<svg width="48" height="49" viewBox="0 0 48 49" fill="none" xmlns="http://www.w3.org/2000/svg">
<circle cx="24" cy="24.3398" r="24" fill="#E9FDF8"/>
<path d="M30.9611 16.9216C29.9879 15.9387 28.83 15.1578 27.554 14.6238C26.2781 14.0897 24.9091 13.813 23.5259 13.8096C22.1427 13.8062 20.7724 14.0762 19.4938 14.6039C18.2152 15.1317 17.0535 15.9069 16.0754 16.885C15.0973 17.8631 14.3222 19.0248 13.7944 20.3034C13.2666 21.582 12.9967 22.9522 13.0001 24.3354C13.0035 25.7187 13.2802 27.0876 13.8142 28.3636C14.3483 29.6395 15.1292 30.7974 16.1121 31.7707C17.0853 32.7536 18.2432 33.5345 19.5192 34.0685C20.7952 34.6026 22.1641 34.8793 23.5473 34.8827C24.9305 34.8861 26.3008 34.6161 27.5794 34.0884C28.858 33.5606 30.0197 32.7854 30.9978 31.8073C31.9759 30.8292 32.7511 29.6675 33.2788 28.3889C33.8066 27.1103 34.0765 25.7401 34.0731 24.3569C34.0697 22.9736 33.793 21.6047 33.259 20.3287C32.7249 19.0528 31.944 17.8949 30.9611 16.9216ZM14.5366 24.3461C14.5363 23.5496 14.6419 22.7566 14.8507 21.9879C15.1947 22.7285 15.6944 23.3683 16.0343 24.1282C16.4735 25.1051 17.6529 24.8341 18.1736 25.6901C18.6358 26.4499 18.1422 27.4108 18.4882 28.2058C18.7394 28.7829 19.3319 28.909 19.7407 29.3308C20.1583 29.7565 20.1494 30.3396 20.2132 30.8946C20.2851 31.5467 20.4018 32.193 20.5624 32.8291C20.5624 32.8338 20.5624 32.839 20.5661 32.8436C17.0585 31.6118 14.5366 28.2682 14.5366 24.3461ZM23.5366 33.3461C23.034 33.346 22.5323 33.304 22.0366 33.2205C22.0418 33.0935 22.0441 32.9749 22.0568 32.8924C22.1707 32.1471 22.5438 31.4182 23.0472 30.8604C23.5446 30.3101 24.2261 29.9379 24.6461 29.3135C25.0577 28.7041 25.181 27.8838 25.0113 27.1718C24.7615 26.1199 23.3322 25.7688 22.5616 25.1983C22.1186 24.8702 21.7244 24.363 21.1427 24.3218C20.8746 24.303 20.65 24.3607 20.3843 24.2922C20.1405 24.229 19.9493 24.0977 19.6896 24.1319C19.2044 24.1957 18.8983 24.7141 18.3771 24.6438C17.8825 24.5777 17.373 23.9988 17.2605 23.5277C17.1161 22.9221 17.5952 22.7257 18.1085 22.6718C18.3227 22.6493 18.5632 22.6249 18.769 22.7036C19.0399 22.804 19.1679 23.0693 19.4111 23.2033C19.8672 23.4536 19.9596 23.0538 19.8897 22.6488C19.7852 22.0422 19.6633 21.7952 20.2043 21.3776C20.5793 21.0897 20.8999 20.8816 20.8399 20.3646C20.8043 20.0608 20.6379 19.9235 20.793 19.6211C20.9107 19.391 21.2336 19.1833 21.4441 19.046C21.9874 18.6916 23.7715 18.7179 23.0425 17.726C22.8283 17.4349 22.4332 16.9146 22.0582 16.8433C21.5894 16.7547 21.3813 17.2779 21.0546 17.5085C20.7171 17.7471 20.0599 18.018 19.7219 17.6491C19.2672 17.1527 20.0233 16.9901 20.1907 16.6432C20.268 16.4815 20.1907 16.2569 20.0604 16.0455C20.2294 15.9743 20.4013 15.9082 20.576 15.8472C20.6855 15.9281 20.8153 15.9768 20.951 15.9879C21.2646 16.0085 21.5604 15.8388 21.8341 16.0526C22.1379 16.2869 22.3568 16.5832 22.7599 16.6563C23.1499 16.7271 23.5629 16.4997 23.6594 16.1004C23.718 15.8576 23.6594 15.6011 23.6032 15.3504C25.3563 15.3605 27.0678 15.8855 28.525 16.8602C28.4313 16.8246 28.3193 16.8288 28.181 16.893C27.8965 17.0252 27.4933 17.3618 27.46 17.6955C27.4221 18.0743 27.9808 18.1277 28.2461 18.1277C28.6446 18.1277 29.0482 17.9496 28.9197 17.4893C28.864 17.2896 28.788 17.0819 28.6657 16.9563C28.9598 17.1604 29.2415 17.3817 29.5094 17.6191C29.5052 17.6233 29.501 17.6271 29.4968 17.6318C29.2268 17.913 28.9132 18.1357 28.7285 18.4779C28.5982 18.7188 28.4515 18.8332 28.1875 18.8955C28.0422 18.9297 27.8763 18.9424 27.7544 19.0399C27.415 19.3071 27.6082 19.9493 27.9297 20.1419C28.3361 20.3852 28.939 20.2708 29.2455 19.9235C29.485 19.6516 29.6261 19.1796 30.0569 19.1801C30.2466 19.1797 30.4288 19.2539 30.5641 19.3868C30.7422 19.5715 30.7071 19.744 30.745 19.9746C30.8121 20.3843 31.1735 20.1621 31.3933 19.9554C31.5536 20.2406 31.6982 20.5343 31.8265 20.8352C31.5846 21.1835 31.3924 21.5632 30.8107 21.1572C30.4624 20.914 30.2482 20.561 29.8108 20.4513C29.4288 20.3576 29.0374 20.4551 28.66 20.5202C28.2311 20.5947 27.7225 20.6276 27.3972 20.9524C27.0827 21.2655 26.9163 21.6846 26.5816 21.9991C25.9343 22.6085 25.661 23.2736 26.08 24.1352C26.4832 24.9635 27.3265 25.413 28.2363 25.354C29.1302 25.2944 30.0588 24.776 30.033 26.0749C30.0236 26.5347 30.1197 26.853 30.2608 27.2801C30.3916 27.6738 30.3827 28.0554 30.4127 28.4618C30.4412 28.9377 30.5156 29.4097 30.6349 29.8713C29.7947 30.9531 28.7184 31.8285 27.4882 32.4307C26.2579 33.033 24.9063 33.3461 23.5366 33.3461Z" fill="#18BA92"/>
</svg>
