<svg width="20" height="21" viewBox="0 0 20 21" fill="none" xmlns="http://www.w3.org/2000/svg">
<path d="M10 0.839844C4.48 0.839844 0 5.31984 0 10.8398C0 16.3598 4.48 20.8398 10 20.8398C15.52 20.8398 20 16.3598 20 10.8398C20 5.31984 15.52 0.839844 10 0.839844ZM10 18.8398C5.59 18.8398 2 15.2498 2 10.8398C2 6.42984 5.59 2.83984 10 2.83984C14.41 2.83984 18 6.42984 18 10.8398C18 15.2498 14.41 18.8398 10 18.8398ZM14.59 6.41984L8 13.0098L5.41 10.4298L4 11.8398L8 15.8398L16 7.83984L14.59 6.41984Z" fill="#348364"/>
</svg>
