<svg width="48" height="49" viewBox="0 0 48 49" fill="none" xmlns="http://www.w3.org/2000/svg">
<circle cx="24" cy="24.3398" r="24" fill="#FEE8E8"/>
<g clip-path="url(#clip0_2_704)">
<path d="M34.4999 33.3404C34.4999 33.3404 35.9999 33.3404 35.9999 31.8404C35.9999 30.3404 34.4999 25.8404 28.4999 25.8404C22.4999 25.8404 20.9999 30.3404 20.9999 31.8404C20.9999 33.3404 22.4999 33.3404 22.4999 33.3404H34.4999ZM22.5329 31.8404C22.5218 31.8389 22.5108 31.8369 22.4999 31.8344C22.5014 31.4384 22.7504 30.2894 23.6399 29.2544C24.4679 28.2839 25.9229 27.3404 28.4999 27.3404C31.0754 27.3404 32.5304 28.2854 33.3599 29.2544C34.2494 30.2894 34.4969 31.4399 34.4999 31.8344L34.4879 31.8374C34.4809 31.8386 34.4739 31.8396 34.4669 31.8404H22.5329ZM28.4999 22.8404C29.2955 22.8404 30.0586 22.5243 30.6212 21.9617C31.1838 21.3991 31.4999 20.636 31.4999 19.8404C31.4999 19.0447 31.1838 18.2817 30.6212 17.7191C30.0586 17.1565 29.2955 16.8404 28.4999 16.8404C27.7042 16.8404 26.9412 17.1565 26.3786 17.7191C25.8159 18.2817 25.4999 19.0447 25.4999 19.8404C25.4999 20.636 25.8159 21.3991 26.3786 21.9617C26.9412 22.5243 27.7042 22.8404 28.4999 22.8404ZM32.9999 19.8404C32.9999 20.4313 32.8835 21.0165 32.6573 21.5625C32.4312 22.1084 32.0997 22.6045 31.6819 23.0224C31.264 23.4402 30.7679 23.7717 30.222 23.9979C29.676 24.224 29.0908 24.3404 28.4999 24.3404C27.9089 24.3404 27.3238 24.224 26.7778 23.9979C26.2318 23.7717 25.7358 23.4402 25.3179 23.0224C24.9 22.6045 24.5686 22.1084 24.3424 21.5625C24.1163 21.0165 23.9999 20.4313 23.9999 19.8404C23.9999 18.6469 24.474 17.5023 25.3179 16.6584C26.1618 15.8145 27.3064 15.3404 28.4999 15.3404C29.6934 15.3404 30.8379 15.8145 31.6819 16.6584C32.5258 17.5023 32.9999 18.6469 32.9999 19.8404ZM22.4039 26.2604C21.8039 26.0715 21.1853 25.9472 20.5589 25.8899C20.2069 25.8564 19.8535 25.8399 19.4999 25.8404C13.4999 25.8404 11.9999 30.3404 11.9999 31.8404C11.9999 32.8409 12.4994 33.3404 13.4999 33.3404H19.8239C19.6015 32.8721 19.4906 32.3587 19.4999 31.8404C19.4999 30.3254 20.0654 28.7774 21.1349 27.4844C21.4994 27.0434 21.9239 26.6309 22.4039 26.2604ZM19.3799 27.3404C18.4921 28.6743 18.0125 30.2381 17.9999 31.8404H13.4999C13.4999 31.4504 13.7459 30.2954 14.6399 29.2544C15.4574 28.3004 16.8779 27.3704 19.3799 27.3419V27.3404ZM14.2499 20.5904C14.2499 19.3969 14.724 18.2523 15.5679 17.4084C16.4118 16.5645 17.5564 16.0904 18.7499 16.0904C19.9434 16.0904 21.0879 16.5645 21.9319 17.4084C22.7758 18.2523 23.2499 19.3969 23.2499 20.5904C23.2499 21.7839 22.7758 22.9285 21.9319 23.7724C21.0879 24.6163 19.9434 25.0904 18.7499 25.0904C17.5564 25.0904 16.4118 24.6163 15.5679 23.7724C14.724 22.9285 14.2499 21.7839 14.2499 20.5904ZM18.7499 17.5904C17.9542 17.5904 17.1912 17.9065 16.6286 18.4691C16.0659 19.0317 15.7499 19.7947 15.7499 20.5904C15.7499 21.386 16.0659 22.1491 16.6286 22.7117C17.1912 23.2743 17.9542 23.5904 18.7499 23.5904C19.5455 23.5904 20.3086 23.2743 20.8712 22.7117C21.4338 22.1491 21.7499 21.386 21.7499 20.5904C21.7499 19.7947 21.4338 19.0317 20.8712 18.4691C20.3086 17.9065 19.5455 17.5904 18.7499 17.5904Z" fill="#FE8E8E"/>
</g>
<defs>
<clipPath id="clip0_2_704">
<rect width="24" height="24" fill="white" transform="translate(12 12.3398)"/>
</clipPath>
</defs>
</svg>
