<svg width="18" height="21" viewBox="0 0 18 21" fill="none" xmlns="http://www.w3.org/2000/svg">
<path d="M8 14.8398H10V16.8398H8V14.8398ZM8 6.83984H10V12.8398H8V6.83984ZM16 2.83984H11.82C11.4 1.67984 10.3 0.839844 9 0.839844C7.7 0.839844 6.6 1.67984 6.18 2.83984H2C1.86 2.83984 1.73 2.84984 1.6 2.87984C1.21 2.95984 0.86 3.15984 0.59 3.42984C0.41 3.60984 0.26 3.82984 0.16 4.06984C0.0600001 4.29984 0 4.55984 0 4.83984V18.8398C0 19.1098 0.0600001 19.3798 0.16 19.6198C0.26 19.8598 0.41 20.0698 0.59 20.2598C0.86 20.5298 1.21 20.7298 1.6 20.8098C1.73 20.8298 1.86 20.8398 2 20.8398H16C17.1 20.8398 18 19.9398 18 18.8398V4.83984C18 3.73984 17.1 2.83984 16 2.83984ZM9 2.58984C9.41 2.58984 9.75 2.92984 9.75 3.33984C9.75 3.74984 9.41 4.08984 9 4.08984C8.59 4.08984 8.25 3.74984 8.25 3.33984C8.25 2.92984 8.59 2.58984 9 2.58984ZM16 18.8398H2V4.83984H16V18.8398Z" fill="#FF5858"/>
</svg>
