<svg width="32" height="33" viewBox="0 0 32 33" fill="none" xmlns="http://www.w3.org/2000/svg">
<circle cx="16" cy="16.3398" r="16" fill="#F6F8FD"/>
<path d="M22.2773 13.4636C22.1426 13.4636 19.0439 13.4829 16.2773 14.8022C13.5106 13.4829 10.4119 13.4636 10.2773 13.4636C10.1005 13.4636 9.93088 13.5338 9.80586 13.6588C9.68083 13.7838 9.6106 13.9534 9.6106 14.1302V20.7189C9.6106 20.8083 9.6286 20.8969 9.66353 20.9792C9.69846 21.0616 9.74961 21.1361 9.81393 21.1982C9.94393 21.3236 10.1339 21.4016 10.2999 21.3849L10.3846 21.3842C10.8399 21.3842 13.2486 21.4496 15.9953 22.7342C16.0059 22.7396 16.0179 22.7376 16.0286 22.7416C16.1079 22.7742 16.1913 22.7969 16.2773 22.7969C16.3633 22.7969 16.4466 22.7742 16.5266 22.7416C16.5373 22.7376 16.5493 22.7396 16.5599 22.7342C19.3066 21.4489 21.7153 21.3842 22.1706 21.3842L22.2553 21.3849C22.4139 21.4016 22.6106 21.3236 22.7413 21.1982C22.8706 21.0722 22.9439 20.8989 22.9439 20.7189V14.1302C22.9439 13.9534 22.8737 13.7838 22.7487 13.6588C22.6236 13.5338 22.4541 13.4636 22.2773 13.4636ZM10.9439 14.8296C11.9339 14.9036 13.8646 15.1496 15.6106 15.9576V21.1189C13.6106 20.3356 11.8839 20.1229 10.9439 20.0682V14.8296ZM21.6106 20.0682C20.6706 20.1229 18.9439 20.3356 16.9439 21.1189V15.9576C18.6899 15.1496 20.6206 14.9036 21.6106 14.8296V20.0682Z" fill="#3672E9"/>
<path d="M16.2767 13.4625C17.3813 13.4625 18.2767 12.5671 18.2767 11.4625C18.2767 10.3579 17.3813 9.46249 16.2767 9.46249C15.1722 9.46249 14.2767 10.3579 14.2767 11.4625C14.2767 12.5671 15.1722 13.4625 16.2767 13.4625Z" fill="#3672E9"/>
</svg>