<svg width="24" height="24" viewBox="0 0 24 24" fill="none" xmlns="http://www.w3.org/2000/svg">
<g clip-path="url(#clip0_598_139)">
<path d="M15.392 17.9995L15.5654 21.5151L12.0093 19.0439L8.43338 21.5174L8.60686 17.9995H7.10504L6.84619 23.2495H8.56613L12.0074 20.8692L15.4327 23.2495H17.1527L16.8938 17.9995H15.392Z" fill="black"/>
<path d="M19.4713 7.26139L19.3685 5.00885L17.4693 3.79353L16.2538 1.8942L14.0012 1.79107L11.999 0.75415L9.99683 1.79131L7.74425 1.89443L6.52869 3.79353L4.62955 5.00885L4.52671 7.26139L3.4895 9.26361L4.52671 11.2659L4.62983 13.5184L6.52869 14.7337L7.74406 16.6331L9.99664 16.7359L11.999 17.7731L14.0012 16.7359L16.2538 16.6331L17.4691 14.7337L19.3684 13.5185L19.4713 11.2661L20.5085 9.26379L19.4713 7.26139ZM17.9879 10.8684L17.9053 12.6737L16.383 13.6478L15.4089 15.17L13.6035 15.2525L11.999 16.0838L10.3943 15.2525L8.58889 15.17L7.61483 13.6478L6.09275 12.6737L6.0103 10.8684L5.17869 9.26361L6.01011 7.65917L6.09275 5.85354L7.61483 4.87948L8.58889 3.35726L10.3943 3.27476L11.999 2.44348L13.6037 3.27471L15.4091 3.35721L16.3832 4.87943L17.9053 5.85354L17.9877 7.65893L18.8193 9.26361L17.9879 10.8684Z" fill="black"/>
</g>
<defs>
<clipPath id="clip0_598_139">
<rect width="24" height="24" fill="white" transform="translate(0 -0.000488281)"/>
</clipPath>
</defs>
</svg>
