<svg width="48" height="49" viewBox="0 0 48 49" fill="none" xmlns="http://www.w3.org/2000/svg">
<circle cx="24" cy="24.3398" r="24" fill="#FDE0FE"/>
<path d="M16 18.3398H14V32.3398C14 33.4398 14.9 34.3398 16 34.3398H30V32.3398H16V18.3398ZM32 14.3398H20C18.9 14.3398 18 15.2398 18 16.3398V28.3398C18 29.4398 18.9 30.3398 20 30.3398H32C33.1 30.3398 34 29.4398 34 28.3398V16.3398C34 15.2398 33.1 14.3398 32 14.3398ZM32 28.3398H20V16.3398H32V28.3398ZM25.51 22.4998C25.92 21.7698 26.69 21.3398 27.14 20.6998C27.62 20.0198 27.35 18.7598 26 18.7598C25.12 18.7598 24.68 19.4298 24.5 19.9898L23.13 19.4198C23.51 18.2998 24.52 17.3398 25.99 17.3398C27.22 17.3398 28.07 17.8998 28.5 18.5998C28.87 19.1998 29.08 20.3298 28.51 21.1698C27.88 22.0998 27.28 22.3798 26.95 22.9798C26.82 23.2198 26.77 23.3798 26.77 24.1598H25.25C25.26 23.7498 25.19 23.0798 25.51 22.4998ZM24.95 26.2898C24.95 25.6998 25.42 25.2498 26 25.2498C26.59 25.2498 27.04 25.6998 27.04 26.2898C27.04 26.8698 26.6 27.3398 26 27.3398C25.42 27.3398 24.95 26.8698 24.95 26.2898Z" fill="#FA00FF" fill-opacity="0.5"/>
</svg>
