<svg width="194" height="80" viewBox="0 23 194 48" fill="none" xmlns="http://www.w3.org/2000/svg">
<g opacity="0.8">
<path d="M26.6634 70.7492C32.5495 70.7492 38.1946 68.2648 42.3568 63.8425C46.5189 59.4203 48.8572 53.4224 48.8572 47.1683C48.8572 40.9143 46.5189 34.9164 42.3568 30.4941C38.1946 26.0718 32.5495 23.5874 26.6634 23.5874L26.6634 47.1683L26.6634 70.7492Z" fill="#5A5A5A"/>
<path d="M119.596 70.7492C125.482 70.7492 131.127 68.2648 135.289 63.8425C139.452 59.4203 141.79 53.4224 141.79 47.1683C141.79 40.9143 139.452 34.9164 135.289 30.4941C131.127 26.0718 125.482 23.5874 119.596 23.5874L119.596 47.1683L119.596 70.7492Z" fill="#939393"/>
<path d="M167.451 23.5869C167.451 26.6836 166.859 29.7499 165.709 32.6109C164.558 35.4719 162.873 38.0714 160.747 40.2611C158.622 42.4508 156.099 44.1877 153.322 45.3728C150.545 46.5578 147.569 47.1678 144.563 47.1678L144.563 23.5869H167.451Z" fill="#1A1A1A"/>
<path d="M144.469 47.1782C147.468 47.1769 150.439 47.7853 153.21 48.9689C155.982 50.1525 158.5 51.8879 160.622 54.0762C162.744 56.2644 164.427 58.8627 165.576 61.7225C166.725 64.5823 167.317 67.6478 167.319 70.7438L144.48 70.754L144.469 47.1782Z" fill="#5A5A5A"/>
<path d="M168.146 23.5892H184.957C189.462 23.5892 193.114 27.2415 193.114 31.7468V47.1701H176.304C171.798 47.1701 168.146 43.5179 168.146 39.0126V23.5892Z" fill="#5A5A5A"/>
<path d="M0 23.5892H16.8105C21.3158 23.5892 24.968 27.2415 24.968 31.7468V47.1701H8.15757C3.65227 47.1701 0 43.5179 0 39.0126V23.5892Z" fill="#939393"/>
<path d="M168.146 70.7608V55.3374C168.146 50.8321 171.798 47.1799 176.304 47.1799H193.114V62.6032C193.114 67.1085 189.462 70.7608 184.957 70.7608H168.146Z" fill="#191919"/>
<path d="M0 70.7608L0 55.3374C0 50.8321 3.65226 47.1799 8.15756 47.1799H24.968V62.6032C24.968 67.1085 21.3158 70.7608 16.8105 70.7608H0Z" fill="#191919"/>
<path d="M119.596 70.7492C113.71 70.7492 108.065 68.2648 103.903 63.8425C99.7405 59.4203 97.4023 53.4224 97.4023 47.1683C97.4023 40.9143 99.7405 34.9164 103.903 30.4941C108.065 26.0718 113.71 23.5874 119.596 23.5874L119.596 47.1683L119.596 70.7492Z" fill="#333333"/>
<path d="M50.2437 70.7492C53.1583 70.7492 56.0443 70.1393 58.7369 68.9542C61.4296 67.7692 63.8763 66.0322 65.9371 63.8425C67.998 61.6529 69.6328 59.0533 70.7482 56.1923C71.8635 53.3314 72.4376 50.265 72.4376 47.1683L50.2437 47.1683L50.2437 70.7492Z" fill="#939393"/>
<path d="M72.4241 47.2232C69.5216 47.2327 66.6455 46.6322 63.9601 45.4561C61.2747 44.2801 58.8325 42.5514 56.773 40.3689C54.7135 38.1864 53.077 35.5927 51.957 32.736C50.837 29.8792 50.2553 26.8154 50.2452 23.7194L72.3475 23.6475L72.4241 47.2232Z" fill="#333333"/>
<path d="M72.4365 47.1502C72.4365 44.2357 73.0464 41.3497 74.2315 38.657C75.4165 35.9643 77.1535 33.5177 79.3432 31.4568C81.5329 29.3959 84.1324 27.7611 86.9934 26.6458C89.8544 25.5305 92.9207 24.9564 96.0174 24.9564L96.0174 47.1502L72.4365 47.1502Z" fill="#939393"/>
<path d="M72.4318 47.1775C75.3463 47.1775 78.2323 47.7875 80.925 48.9725C83.6176 50.1576 86.0643 51.8945 88.1252 54.0842C90.186 56.2739 91.8208 58.8734 92.9362 61.7344C94.0515 64.5954 94.6256 67.6617 94.6256 70.7584L72.4318 70.7584V47.1775Z" fill="#333333"/>
</g>
</svg>
